<svg xmlns="http://www.w3.org/2000/svg" version="1.1" xmlns:xlink="http://www.w3.org/1999/xlink" xmlns:svgjs="http://svgjs.dev/svgjs" width="1500" height="1500" viewBox="0 0 1500 1500"><rect width="1500" height="1500" fill="#000000"></rect><g transform="matrix(0.6666666666666666,0,0,0.6666666666666666,249.39393939393938,438.5856950067477)"><svg viewBox="0 0 396 247" data-background-color="#3c6d71" preserveAspectRatio="xMidYMid meet" height="935" width="1500" xmlns="http://www.w3.org/2000/svg" xmlns:xlink="http://www.w3.org/1999/xlink"><g id="tight-bounds" transform="matrix(1,0,0,1,0.2400000000000091,-0.09999999999999432)"><svg viewBox="0 0 395.52 247.2" height="247.2" width="395.52"><g><svg></svg></g><g><svg viewBox="0 0 395.52 247.2" height="247.2" width="395.52"><g transform="matrix(1,0,0,1,132.0649206521739,47.215199999999996)"><svg viewBox="0 0 131.39015869565216 152.7696" height="152.7696" width="131.39015869565216"><g><svg viewBox="0 0 131.39015869565216 152.7696" height="152.7696" width="131.39015869565216"><g><svg viewBox="0 0 131.39015869565216 152.7696" height="152.7696" width="131.39015869565216"><g><svg viewBox="0 0 131.39015869565216 152.7696" height="152.7696" width="131.39015869565216"><g id="textblocktransform"><svg viewBox="0 0 131.39015869565216 152.7696" height="152.7696" width="131.39015869565216" id="textblock"><g><svg viewBox="0 0 131.39015869565216 152.7696" height="152.7696" width="131.39015869565216"><g transform="matrix(1,0,0,1,0,0)"><svg width="131.39015869565216" viewBox="3.08 -35.94 30.9 35.94" height="152.7696" data-palette-color="#beef62"><path d="M21.48-35.94L33.98 0 27.93 0 18.6-26.95 9.18 0 3.08 0 15.67-35.94 21.48-35.94ZM15.28-11.43L21.83-11.43 23.24-7.47 13.92-7.47 15.28-11.43Z" opacity="1" transform="matrix(1,0,0,1,0,0)" fill="#ffffff" class="wordmark-text-0" data-fill-palette-color="primary" id="text-0"></path></svg></g></svg></g></svg></g></svg></g></svg></g></svg></g></svg></g><g><path d="M0 123.6c0-68.262 55.338-123.6 123.6-123.6 30.402 0 58.24 10.976 79.768 29.183l-11.147 0c-19.26-14.022-42.974-22.294-68.621-22.295-64.458 0-116.712 52.254-116.712 116.712 0 64.458 52.254 116.712 116.712 116.712 25.647 0 49.361-8.272 68.621-22.295l11.147 0c-21.528 18.206-49.366 29.183-79.768 29.183-68.262 0-123.6-55.338-123.6-123.6z" fill="#ffffff" stroke="transparent" data-fill-palette-color="tertiary"></path></g></svg></g><defs></defs></svg><rect width="395.52" height="247.2" fill="none" stroke="none" visibility="hidden"></rect></g></svg></g></svg>